sfk_cyclingleg_states
version=1
nRows=11
nColumns=53
inDegrees=yes

# SIMM Motion File Header:
name sfk_cyclingleg_states
datacolumns 53
datarows 11
otherdata 1
range 0.23323269 0.23442249
endheader
time	/jointset/bb/crank_angle/value	/jointset/bb/crank_angle/speed	/jointset/spindle/pedal_angle_r/value	/jointset/spindle/pedal_angle_r/speed	/jointset/ground_pelvis/pelvis_tilt/value	/jointset/ground_pelvis/pelvis_tilt/speed	/jointset/ground_pelvis/pelvis_list/value	/jointset/ground_pelvis/pelvis_list/speed	/jointset/ground_pelvis/pelvis_rotation/value	/jointset/ground_pelvis/pelvis_rotation/speed	/jointset/ground_pelvis/pelvis_tx/value	/jointset/ground_pelvis/pelvis_tx/speed	/jointset/ground_pelvis/pelvis_ty/value	/jointset/ground_pelvis/pelvis_ty/speed	/jointset/ground_pelvis/pelvis_tz/value	/jointset/ground_pelvis/pelvis_tz/speed	/jointset/hip_r/hip_angle_r/value	/jointset/hip_r/hip_angle_r/speed	/jointset/hip_r/hip_adduction_r/value	/jointset/hip_r/hip_adduction_r/speed	/jointset/hip_r/hip_rotation_r/value	/jointset/hip_r/hip_rotation_r/speed	/jointset/knee_r/knee_angle_r/value	/jointset/knee_r/knee_angle_r/speed	/jointset/knee_r/tib_tx_r/value	/jointset/knee_r/tib_tx_r/speed	/jointset/knee_r/tib_ty_r/value	/jointset/knee_r/tib_ty_r/speed	/jointset/tib_pat_r/pat_angle_r/value	/jointset/tib_pat_r/pat_angle_r/speed	/jointset/tib_pat_r/pat_tx_r/value	/jointset/tib_pat_r/pat_tx_r/speed	/jointset/tib_pat_r/pat_ty_r/value	/jointset/tib_pat_r/pat_ty_r/speed	/jointset/ankle_r/ankle_angle_r/value	/jointset/ankle_r/ankle_angle_r/speed	/jointset/subtalar_r/subtalar_angle_r/value	/jointset/subtalar_r/subtalar_angle_r/speed	/jointset/mtp_r/mtp_angle_r/value	/jointset/mtp_r/mtp_angle_r/speed	/forceset/bifemlh_r/activation	/forceset/bifemlh_r/fiber_length	/forceset/bifemsh_r/activation	/forceset/bifemsh_r/fiber_length	/forceset/glut_max2_r/activation	/forceset/glut_max2_r/fiber_length	/forceset/vas_int_r/activation	/forceset/vas_int_r/fiber_length	/forceset/med_gas_r/activation	/forceset/med_gas_r/fiber_length	/forceset/tib_ant_r/activation	/forceset/tib_ant_r/fiber_length
      0.23323269	   -122.11890280	   -480.13863232	    131.25727856	    520.62440246	     -0.00000000	     -0.00000000	      0.00000000	      0.00000000	      0.00000000	      0.00000000	     -0.00000000	     -0.00000000	     -0.00000000	     -0.00000000	     -0.00000000	     -0.00000000	     51.59900103	   -199.43062900	      4.38405811	      0.14323299	      0.44107095	     18.16784217	    -63.83711496	    229.60954681	      0.00502100	     -0.00954054	     -0.47715461	      0.07236135	     17.46199246	     -3.14024182	      0.04166163	      0.06990270	     -0.02278588	     -0.00800795	     21.80416350	      9.80126923	      0.00000000	      0.00000000	     -0.00000000	      0.00000000	     -0.00458659	      0.12851934	     -0.00458659	      0.16400495	     -0.00458659	      0.13930042	     -0.00458659	      0.13228644	     -0.00458659	      0.14457246	     -0.00458659	      0.11679084
      0.23331804	   -122.15988107	   -480.13863232	    131.30170972	    520.56736369	     -0.00000000	     -0.00000000	      0.00000000	      0.00000000	      0.00000000	      0.00000000	     -0.00000000	     -0.00000000	     -0.00000000	     -0.00000000	     -0.00000000	     -0.00000000	     51.58198177	   -199.39562743	      4.38407029	      0.14219431	      0.44262123	     18.16113376	    -63.81752341	    229.49516760	      0.00502018	     -0.00956575	     -0.47714844	      0.07231502	     17.46172422	     -3.14578559	      0.04166760	      0.06985791	     -0.02278656	     -0.00800780	     21.80500099	      9.82431145	      0.00000000	      0.00000000	     -0.00000000	      0.00000000	     -0.00459758	      0.12851223	     -0.00459758	      0.16401567	     -0.00459758	      0.13928880	     -0.00459758	      0.13227287	     -0.00459758	      0.14455445	     -0.00459758	      0.11679017
      0.23345957	   -122.22783927	   -480.13863232	    131.37538344	    520.47254279	     -0.00000000	     -0.00000000	      0.00000000	      0.00000000	      0.00000000	      0.00000000	     -0.00000000	     -0.00000000	     -0.00000000	     -0.00000000	     -0.00000000	     -0.00000000	     51.55376369	   -199.33727479	      4.38409030	      0.14047471	      0.44519094	     18.14997466	    -63.78505441	    229.30503332	      0.00501882	     -0.00960743	     -0.47713821	      0.07223807	     17.46127832	     -3.15496880	      0.04167748	      0.06978352	     -0.02278769	     -0.00800747	     21.80639421	      9.86243833	      0.00000000	      0.00000000	     -0.00000000	      0.00000000	     -0.00461580	      0.12850043	     -0.00461580	      0.16403344	     -0.00461580	      0.13926952	     -0.00461580	      0.13225038	     -0.00461580	      0.14455315	     -0.00461580	      0.11678905
      0.23352896	   -122.26115271	   -480.13863232	    131.41149375	    520.42595694	     -0.00000000	     -0.00000000	      0.00000000	      0.00000000	      0.00000000	      0.00000000	     -0.00000000	     -0.00000000	     -0.00000000	     -0.00000000	     -0.00000000	     -0.00000000	     51.53993408	   -199.30853038	      4.38410001	      0.13963308	      0.44645005	     18.14448891	    -63.76914779	    229.21162399	      0.00501816	     -0.00962781	     -0.47713320	      0.07220029	     17.46105926	     -3.15946559	      0.04168232	      0.06974702	     -0.02278825	     -0.00800728	     21.80707914	      9.88108890	      0.00000000	      0.00000000	     -0.00000000	      0.00000000	     -0.00462474	      0.12849465	     -0.00462474	      0.16404214	     -0.00462474	      0.13926007	     -0.00462474	      0.13223936	     -0.00462474	      0.14455402	     -0.00462474	      0.11678850
      0.23370685	   -122.34656728	   -480.13863232	    131.50406462	    520.30619812	     -0.00000000	     -0.00000000	      0.00000000	      0.00000000	      0.00000000	      0.00000000	     -0.00000000	     -0.00000000	     -0.00000000	     -0.00000000	     -0.00000000	     -0.00000000	     51.50448454	   -199.23441020	      4.38412466	      0.13747920	      0.44967662	     18.13037690	    -63.72839338	    228.97150941	      0.00501644	     -0.00967991	     -0.47712036	      0.07210325	     17.46049618	     -3.17098035	      0.04169472	      0.06965330	     -0.02278967	     -0.00800669	     21.80884119	      9.92878938	      0.00000000	      0.00000000	     -0.00000000	      0.00000000	     -0.00464764	      0.12847981	     -0.00464764	      0.16406446	     -0.00464764	      0.13923583	     -0.00464764	      0.13221111	     -0.00464764	      0.14456281	     -0.00464764	      0.11678709
      0.23392650	   -122.45202805	   -480.13863232	    131.61833176	    520.15770660	     -0.00000000	     -0.00000000	      0.00000000	      0.00000000	      0.00000000	      0.00000000	     -0.00000000	     -0.00000000	     -0.00000000	     -0.00000000	     -0.00000000	     -0.00000000	     51.46073353	   -199.14205859	      4.38415457	      0.13482785	      0.45365698	     18.11285972	    -63.67813326	    228.67381587	      0.00501431	     -0.00974391	     -0.47710454	      0.07198310	     17.45979813	     -3.18516751	      0.04171001	      0.06953733	     -0.02279143	     -0.00800579	     21.81102846	      9.98744762	      0.00000000	      0.00000000	     -0.00000000	      0.00000000	     -0.00467592	      0.12846148	     -0.00467592	      0.16409198	     -0.00467592	      0.13920591	     -0.00467592	      0.13217626	     -0.00467592	      0.14466570	     -0.00467592	      0.11678533
      0.23394846	   -122.46257413	   -480.13863232	    131.62975668	    520.14281926	     -0.00000000	     -0.00000000	      0.00000000	      0.00000000	      0.00000000	      0.00000000	     -0.00000000	     -0.00000000	     -0.00000000	     -0.00000000	     -0.00000000	     -0.00000000	     51.45635954	   -199.13277254	      4.38415753	      0.13456320	      0.45405480	     18.11110231	    -63.67311085	    228.64397187	      0.00501409	     -0.00975029	     -0.47710296	      0.07197107	     17.45972815	     -3.18658437	      0.04171153	      0.06952572	     -0.02279161	     -0.00800569	     21.81124789	      9.99329897	      0.00000000	      0.00000000	     -0.00000000	      0.00000000	     -0.00467875	      0.12845965	     -0.00467875	      0.16409473	     -0.00467875	      0.13920291	     -0.00467875	      0.13217278	     -0.00467875	      0.14463079	     -0.00467875	      0.11678515
      0.23403358	   -122.50344179	   -480.13863232	    131.67402690	    520.08506274	     -0.00000000	     -0.00000000	      0.00000000	      0.00000000	      0.00000000	      0.00000000	     -0.00000000	     -0.00000000	     -0.00000000	     -0.00000000	     -0.00000000	     -0.00000000	     51.43941162	   -199.09670020	      4.38416894	      0.13353850	      0.45559606	     18.10428232	    -63.65365442	    228.52819336	      0.00501326	     -0.00977498	     -0.47709683	      0.07192439	     17.45945669	     -3.19207170	      0.04171745	      0.06948069	     -0.02279229	     -0.00800528	     21.81209945	     10.01594889	      0.00000000	      0.00000000	     -0.00000000	      0.00000000	     -0.00468971	      0.12845254	     -0.00468971	      0.16410539	     -0.00468971	      0.13919132	     -0.00468971	      0.13215929	     -0.00468971	      0.14461296	     -0.00468971	      0.11678447
      0.23417499	   -122.57133639	   -480.13863232	    131.74756337	    519.98887859	     -0.00000000	     -0.00000000	      0.00000000	      0.00000000	      0.00000000	      0.00000000	     -0.00000000	     -0.00000000	     -0.00000000	     -0.00000000	     -0.00000000	     -0.00000000	     51.41126236	   -199.03646445	      4.38418770	      0.13183909	      0.45815532	     18.09291758	    -63.62135274	    228.33539543	      0.00501188	     -0.00981588	     -0.47708667	      0.07184673	     17.45900466	     -3.20117651	      0.04172727	      0.06940580	     -0.02279342	     -0.00800454	     21.81351842	     10.05348996	      0.00000000	      0.00000000	     -0.00000000	      0.00000000	     -0.00470791	      0.12844073	     -0.00470791	      0.16412309	     -0.00470791	      0.13917205	     -0.00470791	      0.13213688	     -0.00470791	      0.14461167	     -0.00470791	      0.11678333
      0.23424441	   -122.60466801	   -480.13863232	    131.78365978	    519.94155262	     -0.00000000	     -0.00000000	      0.00000000	      0.00000000	      0.00000000	      0.00000000	     -0.00000000	     -0.00000000	     -0.00000000	     -0.00000000	     -0.00000000	     -0.00000000	     51.39744611	   -199.00675203	      4.38419682	      0.13100615	      0.45941115	     18.08732247	    -63.60550480	    228.24053805	      0.00501119	     -0.00983591	     -0.47708168	      0.07180854	     17.45878228	     -3.20564107	      0.04173209	      0.06936898	     -0.02279398	     -0.00800414	     21.81421698	     10.07187979	      0.00000000	      0.00000000	     -0.00000000	      0.00000000	     -0.00471685	      0.12843493	     -0.00471685	      0.16413177	     -0.00471685	      0.13916259	     -0.00471685	      0.13212588	     -0.00471685	      0.14461253	     -0.00471685	      0.11678277
      0.23442249	   -122.69017064	   -480.13863232	    131.87623965	    519.81983094	     -0.00000000	     -0.00000000	      0.00000000	      0.00000000	      0.00000000	      0.00000000	     -0.00000000	     -0.00000000	     -0.00000000	     -0.00000000	     -0.00000000	     -0.00000000	     51.36201399	   -198.93010887	      4.38421996	      0.12887359	      0.46263084	     18.07292207	    -63.56488165	    227.99658501	      0.00500944	     -0.00988711	     -0.47706890	      0.07171042	     17.45821041	     -3.21707745	      0.04174443	      0.06927443	     -0.02279540	     -0.00800303	     21.81601477	     10.11893185	      0.00000000	      0.00000000	     -0.00000000	      0.00000000	     -0.00473978	      0.12842005	     -0.00473978	      0.16415404	     -0.00473978	      0.13913832	     -0.00473978	      0.13209768	     -0.00473978	      0.14462130	     -0.00473978	      0.11678132
